<?xml version="1.0" encoding="utf-8"?>
<!-- Generator: Adobe Illustrator 25.0.1, SVG Export Plug-In . SVG Version: 6.00 Build 0)  -->
<svg version="1.1"
	 id="Layer_1" xmlns:cc="http://creativecommons.org/ns#" xmlns:dc="http://purl.org/dc/elements/1.1/" xmlns:rdf="http://www.w3.org/1999/02/22-rdf-syntax-ns#" xmlns:svg="http://www.w3.org/2000/svg"
	 xmlns="http://www.w3.org/2000/svg" xmlns:xlink="http://www.w3.org/1999/xlink" x="0px" y="0px" viewBox="0 0 200 200"
	 style="enable-background:new 0 0 200 200;" xml:space="preserve">
<style type="text/css">
	.st0{fill:none;stroke:#000000;stroke-width:0.8085;stroke-linecap:round;stroke-miterlimit:1.6171;}
</style>
<path class="st0" d="M65.9,21.1c-17.1,0-18.7,0.8-29.4,14.1S20.9,51.4,24.7,68.1S31.5,90.6,46.9,98s19.4,1.1,34.8-6.3
	c15.4-7.4,14.3-8.6,18.1-25.3c3.8-16.7,4.3-17-2.9-32.5C89.9,18.4,83,21.1,65.9,21.1z"/>
<path class="st0" d="M44,59c0,9.4,0.5,10.6,7.9,16.5s9,7.8,18.2,5.7c9.2-2.1,11.8-3.6,15.9-12.1s1.8-10.6-2.3-19.1
	c-4.1-8.5-5-8.5-14.2-10.6S60,38,51.4,41.9C42.8,45.8,44,49.6,44,59z"/>
</svg>
