<?xml version="1.0" encoding="utf-8"?>
<!-- Generator: Adobe Illustrator 25.0.1, SVG Export Plug-In . SVG Version: 6.00 Build 0)  -->
<svg version="1.1"
	 id="Layer_1" xmlns:cc="http://creativecommons.org/ns#" xmlns:dc="http://purl.org/dc/elements/1.1/" xmlns:rdf="http://www.w3.org/1999/02/22-rdf-syntax-ns#" xmlns:svg="http://www.w3.org/2000/svg"
	 xmlns="http://www.w3.org/2000/svg" xmlns:xlink="http://www.w3.org/1999/xlink" x="0px" y="0px" viewBox="0 0 200 200"
	 style="enable-background:new 0 0 200 200;" xml:space="preserve">
<style type="text/css">
	.st0{fill:none;stroke:#000000;stroke-width:1.4885;stroke-linecap:round;stroke-miterlimit:2.9771;}
	.st1{fill:none;stroke:#000000;stroke-width:1.1854;stroke-linecap:round;stroke-miterlimit:2.3708;}
</style>
<path vector-effect="non-scaling-stroke" class="st0" d="M9.2,64.1c0.3,1.7,1,3.2,2.1,4.3s2.4,2,4,2.5c1.6,0.5,3.5,0.8,5.4,0.8
	c2,0,3.8-0.3,5.4-1c1.6-0.6,2.8-1.5,3.6-2.7c0.9-1.2,1.3-2.5,1.3-4c0-1.8-0.6-3.2-1.8-4.2c-1.2-1-3.1-2.2-6-2.4L18,57.1
	c-1.9-0.1-3.4-0.9-4.6-1.5c-1.2-0.6-2-1.4-2.5-2.3c-0.5-0.9-0.8-2-0.8-3.2c0-1.4,0.4-2.6,1.2-3.8c0.8-1.2,2-2.1,3.5-2.9
	c1.5-0.7,3.3-1.1,5.4-1.1c2.7,0,5,0.5,6.7,1.6c1.8,1,3,2.7,3.7,5"/>
<path vector-effect="non-scaling-stroke" class="st0" d="M43.7,71.3V42.8l21.4,28.5V42.8"/>
<path vector-effect="non-scaling-stroke" class="st0" d="M90.8,42.3c4.2-0.1,8.5,1.9,10.7,5.5c2.5,4,2.8,9.1,1.9,13.6
	c-0.8,4.1-3.5,7.9-7.6,9.4c-3.8,1.3-8.2,1.2-11.7-0.8c-3.7-2.1-5.8-6.4-6.2-10.6c-0.4-4.6,0.2-9.8,3.5-13.3
	C83.8,43.6,87.3,42.3,90.8,42.3L90.8,42.3"/>
<path vector-effect="non-scaling-stroke" class="st0" d="M112.6,42.8l9.9,28.4l8.8-28.4l8.7,28.4l9.9-28.4"/>
<path vector-effect="non-scaling-stroke" class="st1" d="M119.5,82.5h19.1v29.2"/>
<path vector-effect="non-scaling-stroke" class="st1" d="M85.1,111.7V92.9c0-3.5,1-6.2,2.9-8.1c1.9-1.9,4.6-2.8,8.1-2.8
	c3.5,0,6.1,0.9,8.1,2.8c1.9,1.9,2.9,4.6,2.9,8.1v18.8"/>
<path vector-effect="non-scaling-stroke" class="st1" d="M69.8,82.5v29.2l-13-29.1l-13,29.1V82.5"/>
<path vector-effect="non-scaling-stroke" class="st1" d="M20.2,111.7V82.5"/>
</svg>
