<?xml version="1.0" encoding="utf-8"?>
<!-- Generator: Adobe Illustrator 25.0.1, SVG Export Plug-In . SVG Version: 6.00 Build 0)  -->
<svg version="1.1"
	 id="Layer_1" xmlns:cc="http://creativecommons.org/ns#" xmlns:dc="http://purl.org/dc/elements/1.1/" xmlns:rdf="http://www.w3.org/1999/02/22-rdf-syntax-ns#" xmlns:svg="http://www.w3.org/2000/svg"
	 xmlns="http://www.w3.org/2000/svg" xmlns:xlink="http://www.w3.org/1999/xlink" x="0px" y="0px" viewBox="0 0 200 200"
	 style="enable-background:new 0 0 200 200;" xml:space="preserve">
<style type="text/css">
	.st0{fill:none;stroke:#000000;stroke-width:0.9231;stroke-linecap:round;stroke-miterlimit:1.8463;}
</style>
<path class="st0" d="M44.2,63.9c3.4,8.9,6.8,17.8,10.2,26.8c3.1,8.2,6.3,16.4,8.8,24.8c2.9,9.5,5,19.3,6.3,29.1"/>
<path class="st0" d="M37.5,97.4c6.2,12.8,10.1,26.8,11.3,41"/>
<path class="st0" d="M56.1,143.4c-6.4-14.3-8.2-30.6-5.2-46"/>
<path class="st0" d="M60.4,137.9c-3.9-18.3-1.8-37.7,5.9-54.7"/>
<path class="st0" d="M67.9,131.7c-0.7-10.1,1.4-20.4,6-29.4c4.6-9,11.8-16.7,20.5-22"/>
<path class="st0" d="M93.3,139.7c-1.7-9.6-4.6-19-8.7-27.8"/>
<path class="st0" d="M81.8,138.4c4.4-7.5,8.8-15,14.6-21.5s13-11.9,21.3-14.2"/>
<path class="st0" d="M83.8,89.2c3.4-0.6,6.9,0.1,9.8,2"/>
<path class="st0" d="M74.6,99.7c0-2.9,0-5.8,0-8.7"/>
<path class="st0" d="M108.4,106.3c0.4-1.9,0.8-3.8,1.3-5.7"/>
<path class="st0" d="M92.8,120.8c1.9,0,3.9-0.1,5.8-0.1"/>
<path class="st0" d="M87.4,117.4c0.3-2.6,0.6-5.2,0.9-7.8"/>
<path class="st0" d="M69.4,113.5c2.4-0.7,4.8-1.4,7.2-2.1"/>
<path class="st0" d="M49.6,76.2c0.6-3.6,1.2-7.2,1.8-10.7"/>
<path class="st0" d="M52.4,87.6c-3-1.4-6.3-2.2-9.6-2.5"/>
<path class="st0" d="M47.8,134.6c-2.4-3.9-5.4-7.4-9-10.4"/>
<path class="st0" d="M43.5,110.7c0-1.9,0-3.7,0-5.6"/>
<path class="st0" d="M39.4,102.7c-2.3-0.6-4.5-1.1-6.8-1.7"/>
<path class="st0" d="M51.7,129.6c0.6-2,1.1-4,1.7-5.9"/>
<path class="st0" d="M58.3,115.4c-0.5-1.4-1.1-2.8-1.6-4.2"/>
<path class="st0" d="M63,91.5c2.5-1.3,5-2.7,7.6-4"/>
<path class="st0" d="M116.4,141.5c-3.5-4.9-4.1-11.3-2.9-17.2c1.2-5.9,4-11.2,7-16.4c3-5.1,6.3-10.2,8.6-15.7
	c2.3-5.5,3.4-11.7,2-17.5c-1.4-5.8-5.8-11.1-11.6-12.4"/>
<path class="st0" d="M113.4,123.4c5.1-3.4,10.2-6.7,15.2-10.1"/>
<path class="st0" d="M130.3,89.8c-2.1-2.8-5-5.1-8.2-6.4"/>
<path class="st0" d="M125.7,66c0.2-3.3,0.5-6.5,0.7-9.8"/>
</svg>
