<?xml version="1.0" encoding="utf-8"?>
<!-- Generator: Adobe Illustrator 25.0.1, SVG Export Plug-In . SVG Version: 6.00 Build 0)  -->
<svg version="1.1"
	 id="Layer_1" xmlns:cc="http://creativecommons.org/ns#" xmlns:dc="http://purl.org/dc/elements/1.1/" xmlns:rdf="http://www.w3.org/1999/02/22-rdf-syntax-ns#" xmlns:svg="http://www.w3.org/2000/svg"
	 xmlns="http://www.w3.org/2000/svg" xmlns:xlink="http://www.w3.org/1999/xlink" x="0px" y="0px" viewBox="0 0 200 200"
	 style="enable-background:new 0 0 200 200;" xml:space="preserve">
<style type="text/css">
	.st0{fill:none;stroke:#000000;stroke-width:0.9231;stroke-linecap:round;stroke-miterlimit:1.8463;}
</style>
<path vector-effect="non-scaling-stroke" class="st0" d="M48.2,32.4H31.9 M31.8,48V17.5H52"/>
<path vector-effect="non-scaling-stroke" class="st0" d="M71.4,17c4.5-0.1,9,2,11.4,5.9c2.7,4.3,3,9.7,2,14.6
	c-0.9,4.4-3.8,8.5-8.1,10c-4,1.4-8.8,1.2-12.5-0.9c-4-2.3-6.2-6.8-6.6-11.3c-0.5-4.9,0.2-10.5,3.8-14.2C63.9,18.3,67.7,17,71.4,17
	L71.4,17"/>
<path vector-effect="non-scaling-stroke" class="st0" d="M116.3,17.5L93.8,48 M94.8,17.5l22,30.5"/>
<path vector-effect="non-scaling-stroke" class="st0" d="M39.3,94.2l-9.3-14 M18.2,94.2V63.8h11c3,0,5.3,0.7,7.1,2.2
	c1.7,1.5,2.6,3.5,2.6,6.1s-0.9,4.6-2.6,6.1c-1.7,1.5-4.1,2.2-7.1,2.2H29H18.2"/>
<path vector-effect="non-scaling-stroke" class="st0" d="M69.8,63.8H49.6v30.5h21 M65.9,78.7H49.4"/>
<path vector-effect="non-scaling-stroke" class="st0" d="M79.4,94.2c0-10.2,0-20.3,0-30.5c3.5,0,7.1,0,10.6,0
	c3.2,0.1,6.7,1.4,8.2,4.4c1.3,2.5,1.3,5.7,0,8.2c-1.6,3-5.2,4.3-8.4,4.4c-3.5,0.1-6.9,0-10.4,0"/>
<path vector-effect="non-scaling-stroke" class="st0" d="M121.3,63.3c4.5-0.1,9,2,11.4,5.9c2.7,4.3,3,9.7,2,14.6
	c-0.9,4.4-3.8,8.5-8.1,10c-4,1.4-8.8,1.2-12.5-0.9c-4-2.3-6.2-6.8-6.6-11.3c-0.5-4.9,0.2-10.5,3.8-14.2
	C113.8,64.6,117.6,63.3,121.3,63.3L121.3,63.3"/>
</svg>
