<?xml version="1.0" encoding="utf-8"?>
<!-- Generator: Adobe Illustrator 25.0.1, SVG Export Plug-In . SVG Version: 6.00 Build 0)  -->
<svg version="1.1"
	 id="Layer_1" xmlns:cc="http://creativecommons.org/ns#" xmlns:dc="http://purl.org/dc/elements/1.1/" xmlns:rdf="http://www.w3.org/1999/02/22-rdf-syntax-ns#" xmlns:svg="http://www.w3.org/2000/svg"
	 xmlns="http://www.w3.org/2000/svg" xmlns:xlink="http://www.w3.org/1999/xlink" x="0px" y="0px" viewBox="0 0 200 200"
	 style="enable-background:new 0 0 200 200;" xml:space="preserve">
<style type="text/css">
	.st0{fill:none;stroke:#000000;stroke-width:1.7821;stroke-linecap:round;stroke-miterlimit:3.5643;}
</style>
<path vector-effect="non-scaling-stroke" class="st0" d="M96.3,86.9c-9-11.4-24.3-15.8-38-11s-22.9,17.7-22.9,32.2
	c0,14.5,9.2,27.5,22.9,32.2c13.7,4.8,28.9,0.4,38-11"/>
<path vector-effect="non-scaling-stroke" class="st0" d="M126.7,142.3V72.4l-20.1,11.2"/>
<path class="st0" d="M168,142.3l19.7-38l0,0c1.6-3,2.4-6.5,2.4-10l0,0c0-7.8-4.2-15.1-11-19c-6.8-3.9-15.3-3.9-22.1,0
	c-6.8,3.9-11.1,11.2-11,19c0,7.8,4.2,15.1,11,19c6.8,3.9,15.3,3.9,22.1,0c3.8-2.1,6.7-5.3,8.6-9"/>
</svg>
