<?xml version="1.0" encoding="utf-8"?>
<!-- Generator: Adobe Illustrator 25.2.0, SVG Export Plug-In . SVG Version: 6.00 Build 0)  -->
<svg version="1.1"
	 id="Layer_1" xmlns:cc="http://creativecommons.org/ns#" xmlns:dc="http://purl.org/dc/elements/1.1/" xmlns:rdf="http://www.w3.org/1999/02/22-rdf-syntax-ns#" xmlns:svg="http://www.w3.org/2000/svg"
	 xmlns="http://www.w3.org/2000/svg" xmlns:xlink="http://www.w3.org/1999/xlink" x="0px" y="0px" viewBox="0 0 200 200"
	 style="enable-background:new 0 0 200 200;" xml:space="preserve">
<style type="text/css">
	.st0{fill:none;stroke:#000000;stroke-width:0.8018;stroke-linecap:round;stroke-miterlimit:1.6037;}
</style>
<path vector-effect="non-scaling-stroke" class="st0" d="M11.5,64l7.1,20.3L24.9,64l6.3,20.3L38.2,64"/>
<path vector-effect="non-scaling-stroke" class="st0" d="M50.9,63.7c3-0.1,6.1,1.4,7.6,3.9c1.8,2.9,2,6.5,1.4,9.8
	c-0.6,2.9-2.5,5.7-5.4,6.7c-2.7,0.9-5.9,0.8-8.4-0.6C43.4,82,41.9,79,41.6,76c-0.3-3.3,0.2-7,2.5-9.6C45.9,64.6,48.4,63.6,50.9,63.7
	L50.9,63.7"/>
<line class="st0" x1="80.7" y1="84.4" x2="74.5" y2="75"/>
<path class="st0" d="M66.5,84.4V64h7.4c2,0,3.6,0.5,4.7,1.5c1.2,1,1.7,2.4,1.7,4.1s-0.6,3.1-1.7,4.1c-1.2,1-2.7,1.5-4.7,1.5h-0.1
	h-7.3"/>
<path vector-effect="non-scaling-stroke" class="st0" d="M88.6,84.4V64l9.1,20.4l9.1-20.4v20.4"/>
<path vector-effect="non-scaling-stroke" class="st0" d="M116.4,84.4c0-6.8,0-13.6,0-20.4c2.4,0,4.7,0,7.1,0c2.1,0.1,4.5,1,5.5,3
	c0.9,1.7,0.9,3.8,0,5.5c-1.1,2-3.5,2.9-5.7,2.9c-2.3,0-4.6,0-7,0"/>
<line class="st0" x1="133.6" y1="77.2" x2="143.9" y2="77.2"/>
<path class="st0" d="M130.6,84.4c0-0.1,8.2-19.9,8.2-19.9l8.2,19.9"/>
<line class="st0" x1="155.4" y1="84.4" x2="155.4" y2="64"/>
<polyline class="st0" points="147.3,64 155.4,64 163.4,64 "/>
<line class="st0" x1="168.7" y1="74" x2="183" y2="74"/>
<line class="st0" x1="183" y1="64" x2="183" y2="84.4"/>
<line class="st0" x1="168.6" y1="64" x2="168.6" y2="84.4"/>
</svg>
