<?xml version="1.0" encoding="utf-8"?>
<!-- Generator: Adobe Illustrator 25.0.1, SVG Export Plug-In . SVG Version: 6.00 Build 0)  -->
<svg version="1.1"
	 id="Layer_1" xmlns:cc="http://creativecommons.org/ns#" xmlns:dc="http://purl.org/dc/elements/1.1/" xmlns:rdf="http://www.w3.org/1999/02/22-rdf-syntax-ns#" xmlns:svg="http://www.w3.org/2000/svg"
	 xmlns="http://www.w3.org/2000/svg" xmlns:xlink="http://www.w3.org/1999/xlink" x="0px" y="0px" viewBox="0 0 200 200"
	 style="enable-background:new 0 0 200 200;" xml:space="preserve">
<style type="text/css">
	.st0{fill:none;stroke:#000000;stroke-width:2;stroke-linecap:round;}
</style>
<path vector-effect="non-scaling-stroke" class="st0" d="M18.1,15.7L8.8,68.3c-0.4,2.9,0,12.7,7.8,15.1h20.4c3-0.3,13.7-4,16-15.2
	l10.7-52.5"/>
<path vector-effect="non-scaling-stroke" class="st0" d="M123.9,18.4l-23.5-1.4c0,0-10-1.4-13.5,6.7l-3.3,19c0-0.1-0.6,7.2,9.5,7.5
	l18.1,0.8c0,0,8.2,1.6,7.3,8.8l-2.8,14.9c-0.6,2.5-4.6,9-12.7,8.7l-25.2-2.1"/>
<path vector-effect="non-scaling-stroke" class="st0" d="M134.9,83.4L171,15.9h3.9l9.6,67.5 M146.6,62.2l34.8-0.2"/>
</svg>
