<?xml version="1.0" encoding="utf-8"?>
<!-- Generator: Adobe Illustrator 25.0.1, SVG Export Plug-In . SVG Version: 6.00 Build 0)  -->
<svg version="1.1"
	 id="Layer_1" xmlns:cc="http://creativecommons.org/ns#" xmlns:dc="http://purl.org/dc/elements/1.1/" xmlns:rdf="http://www.w3.org/1999/02/22-rdf-syntax-ns#" xmlns:svg="http://www.w3.org/2000/svg"
	 xmlns="http://www.w3.org/2000/svg" xmlns:xlink="http://www.w3.org/1999/xlink" x="0px" y="0px" viewBox="0 0 200 200"
	 style="enable-background:new 0 0 200 200;" xml:space="preserve">
<style type="text/css">
	.st0{fill:none;stroke:#000000;stroke-width:1.4885;stroke-linecap:round;stroke-miterlimit:2.9771;}
	.st1{fill:none;stroke:#000000;stroke-width:2;stroke-linecap:round;}
</style>
<path vector-effect="non-scaling-stroke" class="st0" d="M11.3,45.1c0.3,1.7,1,3.2,2.1,4.3s2.4,2,4,2.5c1.6,0.5,3.5,0.8,5.4,0.8
	c2,0,3.8-0.3,5.4-1c1.6-0.6,2.8-1.5,3.6-2.7c0.9-1.2,1.3-2.5,1.3-4c0-1.8-0.6-3.2-1.8-4.2c-1.2-1-3.1-2.2-6-2.4L20.1,38
	c-1.9-0.1-3.4-0.9-4.6-1.5c-1.2-0.6-2-1.4-2.5-2.3c-0.5-0.9-0.8-2-0.8-3.2c0-1.4,0.4-2.6,1.2-3.8c0.8-1.2,2-2.1,3.5-2.9
	c1.5-0.7,3.3-1.1,5.4-1.1c2.7,0,5,0.5,6.7,1.6c1.8,1,3,2.7,3.7,5"/>
<path vector-effect="non-scaling-stroke" class="st0" d="M45.8,52.2V23.7l21.4,28.5V23.7"/>
<path vector-effect="non-scaling-stroke" class="st0" d="M92.9,23.3c4.2-0.1,8.5,1.9,10.7,5.5c2.5,4,2.8,9.1,1.9,13.6
	c-0.8,4.1-3.5,7.9-7.6,9.4c-3.8,1.3-8.2,1.2-11.7-0.8c-3.7-2.1-5.8-6.4-6.2-10.6c-0.4-4.6,0.2-9.8,3.5-13.3
	C85.9,24.5,89.4,23.2,92.9,23.3L92.9,23.3"/>
<path vector-effect="non-scaling-stroke" class="st0" d="M114.7,23.7l9.9,28.4l8.8-28.4l8.7,28.4l9.9-28.4"/>
<path vector-effect="non-scaling-stroke" class="st1" d="M33.1,99.6H15.5v-27"/>
<path vector-effect="non-scaling-stroke" class="st1" d="M68.7,72.6V90c0,3.2-0.9,5.7-2.7,7.4c-1.8,1.7-4.3,2.6-7.5,2.6
	s-5.7-0.9-7.5-2.6c-1.8-1.7-2.7-4.2-2.7-7.4V72.6"/>
<path vector-effect="non-scaling-stroke" class="st1" d="M90.6,99.6v-27l12,26.9l12-26.9v27"/>
<path vector-effect="non-scaling-stroke" class="st1" d="M143.8,72.6v27"/>
</svg>
