<?xml version="1.0" encoding="utf-8"?>
<!-- Generator: Adobe Illustrator 25.4.1, SVG Export Plug-In . SVG Version: 6.00 Build 0)  -->
<svg version="1.1" id="Layer_1" xmlns="http://www.w3.org/2000/svg" xmlns:xlink="http://www.w3.org/1999/xlink" x="0px" y="0px"
	 viewBox="0 0 241.9 335.9" style="enable-background:new 0 0 241.9 335.9;" xml:space="preserve">
<style type="text/css">
	.st0{fill:none;stroke:#1D1D1B;stroke-miterlimit:10;}
</style>
<path class="st0" d="M196.6,134.4c0.6-4.3,5.6-47.4-23.8-72.4C138.9,33.2,77.8,43.7,62,75.5c-6.9,13.8-6,33.3,3,47.7
	c15.8,25.2,44.4,15.3,80,44.1c8.9,7.2,35,28.3,29.9,47.7c-4,15.1-26,26.3-44.4,24.1c-10.7-1.3-19.9-7.7-27.1-15.4
	c-7.1-7.7-18.2-11.5-28.5-8.5c-11.4,3.3-22.4,16.6-18.4,28.7c12.3,36.9,50.4,1.8,54,0.6"/>
</svg>
