<?xml version="1.0" encoding="utf-8"?>
<!-- Generator: Adobe Illustrator 24.3.0, SVG Export Plug-In . SVG Version: 6.00 Build 0)  -->
<svg version="1.1"
	 id="Layer_1" xmlns:cc="http://creativecommons.org/ns#" xmlns:dc="http://purl.org/dc/elements/1.1/" xmlns:rdf="http://www.w3.org/1999/02/22-rdf-syntax-ns#" xmlns:svg="http://www.w3.org/2000/svg"
	 xmlns="http://www.w3.org/2000/svg" xmlns:xlink="http://www.w3.org/1999/xlink" x="0px" y="0px" viewBox="0 0 200 200"
	 style="enable-background:new 0 0 200 200;" xml:space="preserve">
<style type="text/css">
	.st0{fill:none;stroke:#000000;stroke-width:2;stroke-linecap:round;}
</style>
<path vector-effect="non-scaling-stroke" class="st0" d="M20.6,25.5c0.1-5,2.3-10.2,6.7-12.8C32,9.8,38,9.6,43.1,11.5
	c4.7,1.8,7.8,6.5,8,11.5c0.6,5.3-1.8,10.5-5.2,14.5C42.3,42,38,45.7,33.6,49.3c-4.2,3.4-8.3,6.9-12.5,10.3c10.7,0,21.5,0,32.2,0"/>
<path vector-effect="non-scaling-stroke" class="st0" d="M79.6,10.4c7.1-0.2,14.4,3.2,18.2,9.4c4.3,6.9,4.7,15.5,3.2,23.3
	c-1.4,7-6,13.5-12.9,16c-6.4,2.2-14,2-20-1.4c-6.4-3.6-9.9-10.9-10.5-18C56.8,31.8,58,23,63.6,17C67.7,12.5,73.7,10.3,79.6,10.4
	L79.6,10.4"/>
<path vector-effect="non-scaling-stroke" class="st0" d="M20.6,89.2c0.1-5,2.3-10.2,6.7-12.8c4.7-2.9,10.7-3.1,15.8-1.2
	c4.7,1.8,7.8,6.5,8,11.5c0.6,5.3-1.8,10.5-5.2,14.5c-3.6,4.5-7.9,8.2-12.3,11.8c-4.2,3.4-8.3,6.9-12.5,10.3c10.7,0,21.5,0,32.2,0"/>
<path vector-effect="non-scaling-stroke" class="st0" d="M67.9,85.6c5.4-2,10.7-5.5,13.3-10.8c0,16.2,0,32.4,0,48.6"/>
<path class="st0" d="M94.4,123.3c0,0-6.3,0-14,0s-14,0-14,0s6.3,0,14,0S94.4,123.3,94.4,123.3z"/>
</svg>
