<?xml version="1.0" encoding="utf-8"?>
<!-- Generator: Adobe Illustrator 25.0.1, SVG Export Plug-In . SVG Version: 6.00 Build 0)  -->
<svg version="1.1"
	 id="Layer_1" xmlns:cc="http://creativecommons.org/ns#" xmlns:dc="http://purl.org/dc/elements/1.1/" xmlns:rdf="http://www.w3.org/1999/02/22-rdf-syntax-ns#" xmlns:svg="http://www.w3.org/2000/svg"
	 xmlns="http://www.w3.org/2000/svg" xmlns:xlink="http://www.w3.org/1999/xlink" x="0px" y="0px" viewBox="0 0 200 200"
	 style="enable-background:new 0 0 200 200;" xml:space="preserve">
<style type="text/css">
	.st0{fill:none;stroke:#000000;stroke-width:0.9231;stroke-linecap:round;stroke-miterlimit:1.8463;}
</style>
<path class="st0" d="M51.6,50.6C64,66.6,65.9,79,65.3,87.4c-0.6,9-4.2,13.5-7.2,26.5c-3.1,13.5-3.2,25-2.7,32.5"/>
<path class="st0" d="M75.4,55.6c0,0-6.7-1.2-9.8,4.1S61.8,66,61.8,66"/>
<path class="st0" d="M54,79.7c0,0,4.3-2.4,10.1,3.9"/>
<path class="st0" d="M76.7,92.4c0,0-6.7-1.5-12.5,4.5"/>
<path class="st0" d="M49.5,112.3c0,0,4.8,0.9,6.5,5.7"/>
<path class="st0" d="M68.5,125.8c0,0-8-2.9-12,5.5"/>
</svg>
