<?xml version="1.0" encoding="utf-8"?>
<!-- Generator: Adobe Illustrator 25.0.1, SVG Export Plug-In . SVG Version: 6.00 Build 0)  -->
<svg version="1.1"
	 id="Layer_1" xmlns:cc="http://creativecommons.org/ns#" xmlns:dc="http://purl.org/dc/elements/1.1/" xmlns:rdf="http://www.w3.org/1999/02/22-rdf-syntax-ns#" xmlns:svg="http://www.w3.org/2000/svg"
	 xmlns="http://www.w3.org/2000/svg" xmlns:xlink="http://www.w3.org/1999/xlink" x="0px" y="0px" viewBox="0 0 200 200"
	 style="enable-background:new 0 0 200 200;" xml:space="preserve">
<style type="text/css">
	.st0{fill:none;stroke:#000000;stroke-width:0.8085;stroke-linecap:round;stroke-miterlimit:1.6171;}
</style>
<path class="st0" d="M29.2,64.7v-24c0-1.5,1.2-2.7,2.7-2.7c2.6,0,5.1,0,7.7,0c2.4,0.1,5.2,0.9,6.4,3.2c1,2,1.1,4.5,0.2,6.5
	c-0.8,1.9-5.6,3.1-7.6,3.4c1,0.2,5,0.5,6,1.1c1.8,1,3,3,3,5.1c0.2,2.3-0.7,4.7-2.7,5.9c-2.7,1.7-6,1.4-9.1,1.4
	C33.6,64.7,31.4,64.7,29.2,64.7L29.2,64.7"/>
<path class="st0" d="M54.9,64.7c0-0.2,4.8-26,10.7-26c5.9,0,10.7,26,10.7,26"/>
<path class="st0" d="M138.9,64.4c0-0.2,4.8-26,10.7-26c5.9,0,10.7,26,10.7,26"/>
<path class="st0" d="M70.1,95.1c0-0.2,4.8-26,10.7-26s10.7,26,10.7,26"/>
<path class="st0" d="M125.5,95.1c0-0.2,4.8-26,10.7-26c5.9,0,10.7,26,10.7,26"/>
<path class="st0" d="M84.5,64.7V40.3c0-1.3,1-2.3,2.3-2.3h7.3c2.6,0,4.7,0.6,6.2,1.9c1.5,1.3,2.3,3.1,2.3,5.3c0,2.3-0.8,4-2.3,5.3
	c-1.5,1.3-3.6,1.9-6.2,1.9h-2.4l9.3,12.3"/>
<path class="st0" d="M112.9,65c0-8.9,0-17.8,0-26.7c3.5,0,6.9,0,10.4,0c2.4,0.1,5.2,0.9,6.4,3.2c1,2,1.1,4.5,0.2,6.5
	c-0.8,1.9-5.7,3.1-7.7,3.4c1,0.2,5.1,0.5,6,1.1c1.8,1,3,3,3,5.1c0.2,2.3-0.7,4.7-2.7,5.9c-2.7,1.7-6,1.4-9.1,1.4
	C117.3,65,115.1,65,112.9,65L112.9,65"/>
<path vector-effect="non-scaling-stroke" class="st0" d="M47.7,95.3V71.4c0-1.5,1.3-2.8,2.8-2.8c2.2,0,4.3,0,6.5,0
	c2.8,0.1,5.8,1.3,7.2,3.9c1.1,2.2,1.1,5,0,7.2c-1.4,2.6-4.5,3.7-7.4,3.8c-3,0-6.1,0-9.1,0"/>
<path vector-effect="non-scaling-stroke" class="st0" d="M102.2,95.1V71.2c0-1.5,1.3-2.8,2.8-2.8c2.2,0,4.3,0,6.5,0
	c2.8,0.1,5.8,1.3,7.2,3.9c1.1,2.2,1.1,5,0,7.2c-1.4,2.6-4.5,3.7-7.4,3.8c-3,0-6.1,0-9.1,0"/>
</svg>
