<?xml version="1.0" encoding="utf-8"?>
<!-- Generator: Adobe Illustrator 25.0.1, SVG Export Plug-In . SVG Version: 6.00 Build 0)  -->
<svg version="1.1"
	 id="Layer_1" xmlns:cc="http://creativecommons.org/ns#" xmlns:dc="http://purl.org/dc/elements/1.1/" xmlns:rdf="http://www.w3.org/1999/02/22-rdf-syntax-ns#" xmlns:svg="http://www.w3.org/2000/svg"
	 xmlns="http://www.w3.org/2000/svg" xmlns:xlink="http://www.w3.org/1999/xlink" x="0px" y="0px" viewBox="0 0 200 200"
	 style="enable-background:new 0 0 200 200;" xml:space="preserve">
<style type="text/css">
	.st0{fill:none;stroke:#000000;stroke-width:1.8221;stroke-linecap:round;stroke-miterlimit:3.6441;}
</style>
<path class="st0" d="M128.6,82.4c-18.5,6.8-22.3,12.1-27.9,20.2c-9.7,14.1-14.7,16.1-19.7,18"/>
<path class="st0" d="M125.2,117.8c-9.9-22-34.3-47.9-50.7-46.6c-6.2,0.5-13.4,4.7-15.1,11"/>
<path class="st0" d="M92.3,51.8c-10.9,11.3-2.6,26.7-11.8,46.1c-5.2,11-16.7,21.7-40.8,28.8"/>
<path class="st0" d="M127.9,47.1c-12.6-2.7-27.6-3.6-35.6,4.7"/>
<path class="st0" d="M59.4,82.3c-1,3.6,0.1,7.7,2.7,10.4c6.1,6.3,19.1,4.1,26.6,1.7c12.8-4,24.5-11.7,35.2-19.7"/>
<path class="st0" d="M80.9,120.7c-17.3,6.7-37.1-6.8-44.6-12.5"/>
</svg>
