<?xml version="1.0" encoding="utf-8"?>
<!-- Generator: Adobe Illustrator 25.3.1, SVG Export Plug-In . SVG Version: 6.00 Build 0)  -->
<svg version="1.1"
	 id="Layer_1" xmlns:cc="http://creativecommons.org/ns#" xmlns:dc="http://purl.org/dc/elements/1.1/" xmlns:rdf="http://www.w3.org/1999/02/22-rdf-syntax-ns#" xmlns:svg="http://www.w3.org/2000/svg"
	 xmlns="http://www.w3.org/2000/svg" xmlns:xlink="http://www.w3.org/1999/xlink" x="0px" y="0px" viewBox="0 0 141.7 141.7"
	 enable-background="new 0 0 141.7 141.7" xml:space="preserve">
<path fill="none" stroke="#000000" stroke-miterlimit="10" d="M28.16,40.62c5.31,1.38,10.62,2.76,11.93,0
	c1.3-2.76-1.41-9.65,0-11.93c1.41-2.28,6.92,0.07,11.93,0s9.49-2.54,11.93,0c2.44,2.54,2.83,10.08,0,11.93
	c-2.83,1.84-8.89-2.02-11.93,0s-3.03,9.91,0,11.93s9.1-1.84,11.93,0c2.83,1.84,2.42,9.38,0,11.93c-2.42,2.54-6.87,0.09-11.93,0
	s-10.72,2.2-11.93,0c-1.2-2.2,2.06-8.87,0-11.93c-2.06-3.05-9.44-2.48-11.93,0c-2.49,2.48-0.09,6.88,0,11.93
	c0.09,5.05-2.14,10.74,0,11.93c2.14,1.18,8.66-2.15,11.93,0c3.26,2.15,3.26,9.78,0,11.93c-3.26,2.15-9.78-1.18-11.93,0
	c-2.14,1.18,0.1,6.86,0,11.93s-2.55,9.5,0,11.93c2.55,2.42,10.08,2.83,11.93,0c1.84-2.83-2.02-8.89,0-11.93
	c2.02-3.03,9.91-3.03,11.93,0s-1.84,9.1,0,11.93c1.84,2.83,9.38,2.43,11.93,0c2.54-2.43,0.09-6.87,0-11.93
	c-0.09-5.05,2.18-10.71,0-11.93c-2.18-1.22-8.81,2-11.93,0c-3.11-2-2.7-9.22,0-11.93c2.7-2.71,7.7-0.9,11.93,0
	c4.23,0.9,7.7,0.9,11.93,0c4.23-0.9,9.22-2.71,11.93,0c2.7,2.71,3.11,9.93,0,11.93c-3.11,2-9.74-1.22-11.93,0
	c-2.18,1.22,0.09,6.87,0,11.93c-0.09,5.05-2.54,9.5,0,11.93c2.54,2.43,10.08,2.83,11.93,0c1.84-2.83-2.02-8.89,0-11.93
	s9.91-3.03,11.93,0c2.02,3.03-1.84,9.1,0,11.93c1.84,2.83,9.38,2.42,11.93,0c2.55-2.42,0.1-6.86,0-11.93s2.14-10.75,0-11.93
	c-2.14-1.18-8.66,2.15-11.93,0c-3.26-2.15-3.26-9.78,0-11.93c3.26-2.15,9.78,1.18,11.93,0c2.14-1.18-0.09-6.88,0-11.93
	s2.49-9.44,0-11.93c-2.49-2.48-9.87-3.05-11.93,0c-2.06,3.05,1.2,9.73,0,11.93c-1.2,2.2-6.87-0.09-11.93,0
	c-5.06,0.09-9.5,2.54-11.93,0c-2.42-2.54-2.83-10.08,0-11.93c2.83-1.84,8.89,2.02,11.93,0c3.03-2.02,3.03-9.91,0-11.93
	s-9.09,1.84-11.93,0c-2.83-1.84-2.44-9.39,0-11.93s6.92-0.07,11.93,0c5,0.07,10.52-2.28,11.93,0s-1.3,9.17,0,11.93
	s6.61,1.38,11.93,0s2.66-6.65,0-11.93"/>
</svg>
