<?xml version="1.0" encoding="utf-8"?>
<!-- Generator: Adobe Illustrator 25.0.1, SVG Export Plug-In . SVG Version: 6.00 Build 0)  -->
<svg version="1.1"
	 id="Layer_1" xmlns:cc="http://creativecommons.org/ns#" xmlns:dc="http://purl.org/dc/elements/1.1/" xmlns:rdf="http://www.w3.org/1999/02/22-rdf-syntax-ns#" xmlns:svg="http://www.w3.org/2000/svg"
	 xmlns="http://www.w3.org/2000/svg" xmlns:xlink="http://www.w3.org/1999/xlink" x="0px" y="0px" viewBox="0 0 200 200"
	 style="enable-background:new 0 0 200 200;" xml:space="preserve">
<style type="text/css">
	.st0{fill:none;stroke:#000000;stroke-width:1.4885;stroke-linecap:round;stroke-miterlimit:2.9771;}
</style>
<path class="st0" d="M97.7,50.8c18.7,0,33.8,25,33.8,55.8s-15.2,55.8-33.8,55.8s-33.8-25-33.8-55.8S79,50.8,97.7,50.8"/>
<path class="st0" d="M97,57c16,0,28.9,21.3,28.9,47.6s-13,47.6-28.9,47.6s-28.9-21.3-28.9-47.6S81,57,97,57"/>
<path class="st0" d="M95.9,61.8c13,0,23.5,17.6,23.5,39.3s-10.5,39.3-23.5,39.3s-23.5-17.6-23.5-39.3S82.9,61.8,95.9,61.8"/>
<path class="st0" d="M94,67.5c9.5,0,17.2,13.3,17.2,29.7s-7.7,29.7-17.2,29.7s-17.2-13.3-17.2-29.7S84.5,67.5,94,67.5"/>
<path class="st0" d="M91.6,72.6c6.4,0,11.5,9.3,11.5,20.7S97.9,114,91.6,114S80,104.7,80,93.3S85.2,72.6,91.6,72.6"/>
<path class="st0" d="M89.1,79.9c3.2,0,5.8,5.5,5.8,12.3c0,6.8-2.6,12.3-5.8,12.3c-3.2,0-5.8-5.5-5.8-12.3
	C83.4,85.4,85.9,79.9,89.1,79.9"/>
</svg>
