<?xml version="1.0" encoding="utf-8"?>
<!-- Generator: Adobe Illustrator 25.0.1, SVG Export Plug-In . SVG Version: 6.00 Build 0)  -->
<svg version="1.1"
	 id="Layer_1" xmlns:cc="http://creativecommons.org/ns#" xmlns:dc="http://purl.org/dc/elements/1.1/" xmlns:rdf="http://www.w3.org/1999/02/22-rdf-syntax-ns#" xmlns:svg="http://www.w3.org/2000/svg"
	 xmlns="http://www.w3.org/2000/svg" xmlns:xlink="http://www.w3.org/1999/xlink" x="0px" y="0px" viewBox="0 0 200 200"
	 style="enable-background:new 0 0 200 200;" xml:space="preserve">
<style type="text/css">
	.st0{fill:none;stroke:#000000;stroke-width:1.8221;stroke-linecap:round;stroke-miterlimit:3.6441;}
</style>
<path class="st0" d="M35.1,37.9c-5.1,4.8-6.7,12.4-6.2,19.4c0.5,7,2.8,13.7,4.6,20.5c5.2,20.3,5.5,41.8,0.6,62.1"/>
<path class="st0" d="M60.2,70.8c5.5,11.1,4.8,24.1,4.8,36.5s1,25.8,9.1,35.2"/>
<path class="st0" d="M86.5,141.7c-3.4-6.3-3.9-13.8-2.9-20.8c1-7.1,3.3-13.8,5.4-20.7c3.8-12.3,6.7-25.2,5.9-38.1
	C94,49.3,89,36.2,79.2,27.9"/>
<path class="st0" d="M124.8,47.4c4.6,9.8,5.4,21,5.1,31.9s-1.7,21.7-1.2,32.6s3.2,22,10.1,30.4"/>
<path class="st0" d="M156.4,90.6c3.4,5.2,4.1,11.8,3.7,18c-0.3,6.2-1.5,12.4-1.5,18.6s1.4,12.8,5.5,17.4"/>
<path class="st0" d="M110.2,141.8c-6-11.2-6.8-24.5-5.8-37.1c1-12.7,3.8-25.1,4.5-37.8s-0.9-26-7.7-36.7"/>
<path class="st0" d="M53.3,137.3c-1.7-6.8,0.9-14,4.7-19.9s8.7-11,12.2-17.1c5-8.5,7.1-18.6,6-28.4"/>
<path class="st0" d="M31,64.4c3.3-3.8,6.6-7.5,9.9-11.3"/>
<path class="st0" d="M23,72.3c3.1,4.5,7.2,8.2,12,10.8"/>
<path class="st0" d="M38,114.1c4-6.3,6.8-13.4,8.1-20.8"/>
<path class="st0" d="M92.4,58.5c-1-3.8-4.1-6.8-7.4-8.9s-7.2-3.3-10.8-4.9c-3.6-1.6-7.2-3.6-9.7-6.7"/>
<path class="st0" d="M105.6,96.2c0.6-3.9,3.7-7,6.8-9.4c3.2-2.4,6.7-4.6,8.9-7.9"/>
<path class="st0" d="M130.4,126.5c-6.7-4.9-11.9-11.6-15.1-19.3"/>
<path class="st0" d="M129.3,97.4c7.9-6,11.9-16.6,10.1-26.3"/>
<path class="st0" d="M128.9,56c5-8.2,7.1-18.1,5.9-27.7"/>
<path class="st0" d="M159.6,110.7c-4.3-2.3-7.7-6-9.8-10.4"/>
<path class="st0" d="M159.6,96.2c1.9-6.3,2.9-12.8,3.2-19.3"/>
<path class="st0" d="M103.9,122.9c-2.7-4.8-4.7-9.9-6.2-15.1"/>
<path class="st0" d="M82,127c4.2-3.3,7.7-7.5,10.2-12.3"/>
<path class="st0" d="M88.8,95.8c-1.8-6.1-3.5-12.3-5.3-18.4"/>
<path class="st0" d="M63.7,81.8c2.9-6,5.9-12.1,8.8-18.1"/>
<path class="st0" d="M64.4,98.9c-2-2.3-3.9-4.6-5.9-6.9"/>
<path class="st0" d="M67.1,105.2c5.9-2.2,11.7-4.5,17.6-6.7"/>
<path class="st0" d="M86.4,33.2c-0.4-3.5-0.8-7-1.3-10.5"/>
<path class="st0" d="M109.1,69.6c3.3-2.5,5.9-5.8,7.6-9.5"/>
<path class="st0" d="M107.5,61.3c-0.1-2.4-0.9-4.7-2.3-6.6"/>
</svg>
