<?xml version="1.0" encoding="utf-8"?>
<!-- Generator: Adobe Illustrator 24.3.0, SVG Export Plug-In . SVG Version: 6.00 Build 0)  -->
<svg version="1.1"
	 id="Layer_1" xmlns:cc="http://creativecommons.org/ns#" xmlns:dc="http://purl.org/dc/elements/1.1/" xmlns:rdf="http://www.w3.org/1999/02/22-rdf-syntax-ns#" xmlns:svg="http://www.w3.org/2000/svg"
	 xmlns="http://www.w3.org/2000/svg" xmlns:xlink="http://www.w3.org/1999/xlink" x="0px" y="0px" viewBox="0 0 200 200"
	 style="enable-background:new 0 0 200 200;" xml:space="preserve">
<style type="text/css">
	.st0{fill:none;stroke:#000000;stroke-miterlimit:10;}
</style>
<path class="st0" d="M14.5,66.3c0-11.7,0-18.8,0-30.5c0,0,0-6,6-6s7.5,6.5,7.5,6.5s5.8,21.1,6.8,23.6c0.9,2.2,1.5,6.9,8.8,6.9
	c6.6,0,6.5-6.6,6.5-8L50,29.9"/>
<path class="st0" d="M60.4,66.8l10.4-31.7c0,0,1.7-5.3,6.5-5.3c4.9,0,6.1,5.2,6.1,5.2l11.3,31.8h30c0,0,7.5,0.2,7.5-8.9
	s-7.6-8.5-7.6-8.5l-15.4-0.7c0,0-8.3-0.2-8.3-9s9.5-9.1,9.5-9.1h21.4"/>
<path class="st0" d="M141.3,67l10.4-31.7c0,0,1.7-5.3,6.5-5.3c4.9,0,6.1,5.2,6.1,5.2L175.6,67"/>
</svg>
