<?xml version="1.0" encoding="utf-8"?>
<!-- Generator: Adobe Illustrator 25.4.1, SVG Export Plug-In . SVG Version: 6.00 Build 0)  -->
<svg version="1.1" id="Layer_1" xmlns="http://www.w3.org/2000/svg" xmlns:xlink="http://www.w3.org/1999/xlink" x="0px" y="0px"
	 viewBox="0 0 241.9 335.9" style="enable-background:new 0 0 241.9 335.9;" xml:space="preserve">
<style type="text/css">
	.st0{fill:none;stroke:#000000;stroke-miterlimit:10;}
</style>
<path class="st0" d="M132,275c8.3-12.9,18.2-32.8,12.7-52.6c-9.1-32.6-52.1-36.9-56.7-63.1c-2.1-12,3.3-31.1,42.7-60.3"/>
<path class="st0" d="M205.5,273.6c-10.8-8.1-22.5-19.8-22.5-34c0-16.1,15.1-20.3,22.3-43.1c6-18.8,5.3-46-9.5-55.2
	c-7.2-4.5-16-3.5-21.7-2.2"/>
<path class="st0" d="M34.1,275.5c7.3-3.9,17.6-10.9,21.5-22.5c2.3-6.8,2.2-14.3-9.3-47.6c-10.3-29.9-14.6-36.2-13-47.8
	c1.8-13.7,10.2-24,16.6-30.2"/>
</svg>
