<?xml version="1.0" encoding="utf-8"?>
<!-- Generator: Adobe Illustrator 24.3.0, SVG Export Plug-In . SVG Version: 6.00 Build 0)  -->
<svg version="1.1"
	 id="Layer_1" xmlns:cc="http://creativecommons.org/ns#" xmlns:dc="http://purl.org/dc/elements/1.1/" xmlns:rdf="http://www.w3.org/1999/02/22-rdf-syntax-ns#" xmlns:svg="http://www.w3.org/2000/svg"
	 xmlns="http://www.w3.org/2000/svg" xmlns:xlink="http://www.w3.org/1999/xlink" x="0px" y="0px" viewBox="0 0 200 200"
	 style="enable-background:new 0 0 200 200;" xml:space="preserve">
<style type="text/css">
	.st0{fill:none;stroke:#000000;stroke-width:2;stroke-linecap:round;}
</style>
<path vector-effect="non-scaling-stroke" class="st0" d="M82.1,19.7c-2.2,0-12.5,0.8-30.8,23.4c-3,3.7-7.4,9.8-14.6,15.1
	C30.5,62.7,21,64,20.2,57.6c-0.2-1.6,2.1-2.1,3-1.3c0.5,0.5-0.3,1.5-1.3,1.3 M56.2,23.6c0,0-1.5,12.6-14.5,18.7
	c-0.4,0.2-15.4,5.8-8.3-8.6C34.8,31.1,43,21.3,56,19c0,0,17.4-3.2,19.3,7.5c0,0,1.2,11.6-10.5,16c0.3-0.1-7.9,3-8.7,0.3
	c-0.2-0.6,3.7-2.7,8.2-0.5c0,0,7.1,6.7-4.4,16.6c-4.4,3.8-13,4.2-13.6,0.9c-0.9-4.6,6.8-11,15.1-11.4"/>
<path vector-effect="non-scaling-stroke" class="st0" d="M98.9,14.7c0,0-14.5,21.3-26,36.8c-5.6,7.6-7.3,12.6,0.5,10.1
	c3-1,8.6-6.2,12.7-10.9"/>
<path vector-effect="non-scaling-stroke" class="st0" d="M86.1,50.7c0,0,11-11.4,17.7-8.1c0.1-0.2,1.7,0.9,0.3,4.8
	c0,0,2.6-5.4-2.6-5.2c-1.4,0.1-10.7,2.4-16.9,14.3c0,0-2,5.7,2,5.7c0.6,0,1.4-0.2,2.4-0.6c0.5-0.2,4.8-2.3,9.7-7.7
	c5.6-6.2,6.8-7.5,10.2-11.2c-0.3-0.1-12.3,14.8-12,17.7c0,0-0.2,1.8,1.9,1.8c0.7,0,1.7-0.1,3.1-0.7c0,0,5.7-2.8,12.1-10.8"/>
<path vector-effect="non-scaling-stroke" class="st0" d="M113.9,50.7l26.8-35.9l-32,46.5c1.8-1.3,10-10.9,16.6-16.1
	c6.5-5.5,13.5-4.1,5.5,5.4c-1.3,1.5-3.3,3.3-5.2,6c-6,8.4,4.3,6.7,10.3,1c3.2-3.4,4.5-5,6.1-6.9"/>
</svg>
