<?xml version="1.0" encoding="utf-8"?>
<!-- Generator: Adobe Illustrator 25.3.1, SVG Export Plug-In . SVG Version: 6.00 Build 0)  -->
<svg version="1.1"
	 id="Layer_1" xmlns:cc="http://creativecommons.org/ns#" xmlns:dc="http://purl.org/dc/elements/1.1/" xmlns:rdf="http://www.w3.org/1999/02/22-rdf-syntax-ns#" xmlns:svg="http://www.w3.org/2000/svg"
	 xmlns="http://www.w3.org/2000/svg" xmlns:xlink="http://www.w3.org/1999/xlink" x="0px" y="0px" width="141.7px" height="141.7px"
	 viewBox="0 0 141.7 141.7" style="enable-background:new 0 0 141.7 141.7;" xml:space="preserve">
<style type="text/css">
	.st0{fill:none;stroke:#000000;stroke-width:0.5;stroke-linecap:round;}
</style>
<path class="st0" d="M82.7,72.8h18.2c5.7,0,10.3-4.6,10.3-10.3s-4.6-10.3-10.3-10.3H53c-4.7,0-8.4-3.8-8.4-8.4s3.8-8.4,8.4-8.4h40.1
	c7.1,0,12.9-5.8,12.9-12.9S100.3,9.4,93.2,9.4H25.6c-5,0-9.1,4.1-9.1,9.1s4.1,9.1,9.1,9.1h32.2c9.9,0,17.9,8,17.9,17.9
	s-8,17.9-17.9,17.9l-22.5,0.1c-4.6,0-8.4,3.7-8.4,8.4c0,4.6,3.7,8.4,8.4,8.4h17.3c4.4,0,7.9,3.5,7.9,7.9s-3.5,7.9-7.9,7.9l0,0H31.9
	c-6.5,0-11.8,5.3-11.8,11.8s5.3,11.8,11.8,11.8h50.9c8.4,0,15.1-6.8,15.1-15.1s-6.8-15.1-15.1-15.1l0,0c-4.6,0-8.3-3.7-8.3-8.3
	C74.4,76.5,78.1,72.8,82.7,72.8"/>
</svg>
