<?xml version="1.0" encoding="utf-8"?>
<!-- Generator: Adobe Illustrator 25.0.1, SVG Export Plug-In . SVG Version: 6.00 Build 0)  -->
<svg version="1.1"
	 id="Layer_1" xmlns:cc="http://creativecommons.org/ns#" xmlns:dc="http://purl.org/dc/elements/1.1/" xmlns:rdf="http://www.w3.org/1999/02/22-rdf-syntax-ns#" xmlns:svg="http://www.w3.org/2000/svg"
	 xmlns="http://www.w3.org/2000/svg" xmlns:xlink="http://www.w3.org/1999/xlink" x="0px" y="0px" viewBox="0 0 200 200"
	 style="enable-background:new 0 0 200 200;" xml:space="preserve">
<style type="text/css">
	.st0{fill:none;stroke:#000000;stroke-width:1.514;stroke-linecap:round;stroke-miterlimit:3.028;}
</style>
<path vector-effect="non-scaling-stroke" class="st0" d="M85.7,64.2c-0.6,2-1.5,3.6-2.8,5.1c-1.3,1.4-2.9,2.4-4.7,3.2
	c-1.8,0.7-4,1.1-6.3,1.1c-3.1,0-5.8-0.7-8.1-2.2c-2.3-1.5-4.2-3.6-5.5-6.3c-1.3-2.7-2-5.9-2-9.6c0-3.7,0.6-6.9,1.9-9.6
	c1.3-2.7,3.1-4.8,5.5-6.2c2.3-1.5,5.1-2.2,8.2-2.2c2.5,0,4.6,0.4,6.4,1.1c1.8,0.7,3.3,1.7,4.5,3.1c1.2,1.3,2.1,3,2.7,5.1"/>
<path vector-effect="non-scaling-stroke" class="st0" d="M105.4,45.8c2.4,0,4.6,0.5,6.4,1.6c1.9,1.1,3.3,2.7,4.4,4.8
	c1.1,2.1,1.6,4.5,1.6,7.4s-0.5,5.4-1.6,7.5c-1,2.1-2.5,3.6-4.4,4.7c-1.8,1.1-4,1.6-6.4,1.6s-4.6-0.5-6.5-1.6
	c-1.8-1.1-3.3-2.7-4.4-4.7c-1.1-2.1-1.6-4.6-1.6-7.5s0.5-5.3,1.6-7.4c1.1-2.1,2.5-3.7,4.4-4.8C100.8,46.3,102.9,45.8,105.4,45.8
	L105.4,45.8"/>
<path vector-effect="non-scaling-stroke" class="st0" d="M132.8,72.8c-0.4,0.2-0.8,0.3-1.3,0.4c-0.5,0.1-1.1,0.2-1.8,0.2
	c-1.6,0-2.8-0.5-3.6-1.5c-0.8-1-1.2-2.6-1.2-4.7V34.1"/>
<path vector-effect="non-scaling-stroke" class="st0" d="M70.3,89.9c2.4,0,4.6,0.5,6.4,1.6c1.9,1.1,3.3,2.7,4.4,4.8
	c1.1,2.1,1.6,4.5,1.6,7.4s-0.5,5.4-1.6,7.5c-1,2.1-2.5,3.6-4.4,4.7c-1.8,1.1-4,1.6-6.4,1.6s-4.6-0.5-6.5-1.6
	c-1.8-1.1-3.3-2.7-4.4-4.7c-1.1-2.1-1.6-4.6-1.6-7.5s0.5-5.3,1.6-7.4c1.1-2.1,2.5-3.7,4.4-4.8C65.7,90.5,67.9,89.9,70.3,89.9
	L70.3,89.9"/>
<path class="st0" d="M92.1,90.5c0,8.9,0,17.7,0,26.6"/>
<path class="st0" d="M92.1,97.4c0.9-3,2.9-5.8,5.9-7c2-0.7,4.3-0.8,6.2,0.4c0.2,0.1,0.3,0.3,0.5,0.4"/>
<path vector-effect="non-scaling-stroke" class="st0" d="M109.6,111.2c0.5,2.1,1.7,3.7,3.7,4.8c2,1.1,4.4,1.6,7.1,1.6
	c2.1,0,3.9-0.3,5.4-0.9c1.5-0.6,2.7-1.4,3.5-2.4c0.9-1.1,1.3-2.4,1.3-3.8c0-1.6-0.5-2.9-1.5-3.9c-1-1-2.7-2.2-5.3-2.4l-6.2-0.5
	c-2.5-0.2-4.2-1.3-5.3-2.4c-1-1.1-1.5-2.5-1.5-4c0-1.4,0.4-2.6,1.3-3.7c0.9-1.1,2-2,3.5-2.6s3.2-1,5.1-1c2.7,0,4.9,0.5,6.6,1.6
	s2.8,2.8,3.2,5.1"/>
</svg>
