<?xml version="1.0" encoding="utf-8"?>
<!-- Generator: Adobe Illustrator 24.3.0, SVG Export Plug-In . SVG Version: 6.00 Build 0)  -->
<svg version="1.1"
	 id="Layer_1" xmlns:cc="http://creativecommons.org/ns#" xmlns:dc="http://purl.org/dc/elements/1.1/" xmlns:rdf="http://www.w3.org/1999/02/22-rdf-syntax-ns#" xmlns:svg="http://www.w3.org/2000/svg"
	 xmlns="http://www.w3.org/2000/svg" xmlns:xlink="http://www.w3.org/1999/xlink" x="0px" y="0px" viewBox="0 0 200 200"
	 style="enable-background:new 0 0 200 200;" xml:space="preserve">
<style type="text/css">
	.st0{fill:none;stroke:#000000;stroke-width:2;stroke-linecap:round;}
</style>
<path class="st0" d="M138.2,18.9c-39.8-17.4-74.8-8.6-86.6,8.8c-11.3,16.9-3.3,52.6,17.2,59c21.8,6.8,59.6-22.2,55.6-38.6
	c-3.9-16.1-26.9-32.6-42.7-15.8c-15,16,10.6,63.1,42.2,57.1c16.1-3,24.9-18.3,20-28.9c-7-15.3-51.7-24.6-90.2-5.4
	c-16.4,8.2-24.8,20.9-26.3,33.5c-2.8,22.9,23.8,34.8,54.8,36c33.1,1.3,59.6-5.4,53.6-17.2c-7.5-14.8-55.1-21.2-75-3
	c-12.8,11.7,3.4,26.3,25.4,36.3"/>
</svg>
