<?xml version="1.0" encoding="utf-8"?>
<!-- Generator: Adobe Illustrator 24.3.0, SVG Export Plug-In . SVG Version: 6.00 Build 0)  -->
<svg version="1.1"
	 id="Layer_1" xmlns:cc="http://creativecommons.org/ns#" xmlns:dc="http://purl.org/dc/elements/1.1/" xmlns:rdf="http://www.w3.org/1999/02/22-rdf-syntax-ns#" xmlns:svg="http://www.w3.org/2000/svg"
	 xmlns="http://www.w3.org/2000/svg" xmlns:xlink="http://www.w3.org/1999/xlink" x="0px" y="0px" viewBox="0 0 200 200"
	 style="enable-background:new 0 0 200 200;" xml:space="preserve">
<style type="text/css">
	.st0{fill:none;stroke:#000000;stroke-width:1.6107;stroke-linecap:round;stroke-miterlimit:3.2214;}
</style>
<path vector-effect="non-scaling-stroke" class="st0" d="M23.8,35.8l18.9,46.1 M51.7,35.8L14.5,81.9"/>
<path vector-effect="non-scaling-stroke" class="st0" d="M58.9,82.3l12.6-45.2H73l6.3,45.2h0.9l22.5-45.2h2.7l-5.3,45.2"/>
<path vector-effect="non-scaling-stroke" class="st0" d="M42.8,112.6l-20.5,0.7c0,0-7.9,1.1-8.3,7.3l-1.1,7.9
	c-0.4,2,1.3,6.8,6.7,5.4c3.5-0.8,3.5-0.3,20.8-6.6 M18.5,98l19.6-2c2.7-0.4,7.4,1.7,6.4,7.4l-5.3,30.7"/>
<path vector-effect="non-scaling-stroke" class="st0" d="M97,96.8c-11.6-1-25.4-5-28.8,4.5c-0.7,3.6-1.4,6.7-1.2,10.2
	c0.2,4.2,5.5,3.1,12.1,3.2c4.2,0.1,13.1-1,12.4,6.4c-0.5,4.4-0.7,13.2-11.2,12.4l-18.5-1.4"/>
</svg>
